PathFileType	4	(X/Y/Z)	C:\Users\Basilio\Documents\Thesis Gigler\squatting_fais\c3dfiles\054\SJ_pre5\markers_experimental.trc
DataRate	CameraRate	NumFrames	NumMarkers	Units	OrigDataRate	OrigDataStartFrame	OrigNumFrames
200.000000	200.000000	4	61	mm	200.000000	0	1602
Frame#	Time	FHD			LBHD			RBHD			C7			T10			CLAV			LSHO			LUUPA			LMUPA			LDUPA			LLEP			LMEP			LRAD			LUL			LRFIN			RSHO			RUPA1			RMUPA			RDUPA			RLEP			RMEP			RRAD			RUL			RUFIN			LASI			RASI			USACR			LSACR			RSACR			LTHI1			LTHI2			LTHI3			LTHI4			LLFC			LMFC			LTIB1			LTIB2			LTIB3			LTIB4			LLMAL			LMMAL			LHEE			LMT1			LMT2			LMT5			RTHI			RTHI2			RTHI3			RTHI4			RLFC			RMFC			RTIB1			RTIB2			RTIB3			RTIB4			RLMAL			RMMAL			RHEE			RMT1			RMT2			RMT5			
		X1	Y1	Z1	X2	Y2	Z2	X3	Y3	Z3	X4	Y4	Z4	X5	Y5	Z5	X6	Y6	Z6	X7	Y7	Z7	X8	Y8	Z8	X9	Y9	Z9	X10	Y10	Z10	X11	Y11	Z11	X12	Y12	Z12	X13	Y13	Z13	X14	Y14	Z14	X15	Y15	Z15	X16	Y16	Z16	X17	Y17	Z17	X18	Y18	Z18	X19	Y19	Z19	X20	Y20	Z20	X21	Y21	Z21	X22	Y22	Z22	X23	Y23	Z23	X24	Y24	Z24	X25	Y25	Z25	X26	Y26	Z26	X27	Y27	Z27	X28	Y28	Z28	X29	Y29	Z29	X30	Y30	Z30	X31	Y31	Z31	X32	Y32	Z32	X33	Y33	Z33	X34	Y34	Z34	X35	Y35	Z35	X36	Y36	Z36	X37	Y37	Z37	X38	Y38	Z38	X39	Y39	Z39	X40	Y40	Z40	X41	Y41	Z41	X42	Y42	Z42	X43	Y43	Z43	X44	Y44	Z44	X45	Y45	Z45	X46	Y46	Z46	X47	Y47	Z47	X48	Y48	Z48	X49	Y49	Z49	X50	Y50	Z50	X51	Y51	Z51	X52	Y52	Z52	X53	Y53	Z53	X54	Y54	Z54	X55	Y55	Z55	X56	Y56	Z56	X57	Y57	Z57	X58	Y58	Z58	X59	Y59	Z59	X60	Y60	Z60	X61	Y61	Z61	

1	0	-177.8230743408203	1754.442504882813	-908.9416503906252	-329.4317016601563	1672.265747070313	-974.4040527343752	-342.0013122558594	1668.62353515625	-835.0230102539065	-362.4654235839844	1523.60595703125	-896.8123168945315	-409.725311279297	1186.6064453125	-896.0202636718752	-224.345443725586	1454.33984375	-901.1182861328127	-286.8847351074219	1512.169799804688	-1060.194458007813	-389.178924560547	1385.716674804688	-1226.3837890625	-350.6738586425782	1351.808471679688	-1236.943481445313	-397.4922485351564	1331.912963867188	-1270.221923828125	-389.7850646972657	1268.311889648438	-1293.468139648438	-460.3754272460939	1247.37841796875	-1242.226196289063	-335.7669372558594	1065.880004882813	-1133.3525390625	-295.4517517089844	1029.317260742188	-1186.475708007813	-280.6052551269532	1078.515380859375	-1100.171752929688	-273.3830871582032	1514.966064453125	-737.7590332031251	-377.2321166992188	1375.95947265625	-568.1069946289064	-350.9555358886719	1335.026245117188	-562.8281860351564	-401.8312377929689	1319.726196289063	-533.5222167968751	-410.7517395019532	1270.966918945313	-517.9296264648439	-472.3326416015626	1260.388671875	-578.2189941406251	-362.7450561523438	1056.326782226563	-681.2694091796876	-297.3126220703126	1075.725341796875	-700.2987670898439	-318.2539978027344	1031.636108398438	-618.3035888671876	-216.2568969726563	1012.138549804688	-1024.51318359375	-211.845443725586	1018.438293457031	-764.6913452148439	-406.2505493164064	1094.29931640625	-893.2527465820315	-409.792205810547	1061.628662109375	-920.6175537109377	-407.6963806152345	1061.261840820313	-864.7991943359377	-353.1250305175782	802.388122558594	-1122.71630859375	-332.0727844238282	721.2899780273439	-1136.976318359375	-285.2023620605469	720.1794433593751	-1140.199462890625	-365.3373413085938	670.4544067382814	-1122.802490234375	-381.1665039062501	513.8764648437501	-1125.152709960938	-312.4961242675782	479.8909301757814	-1012.3916015625	-332.4969482421876	349.3779296875001	-1136.989501953125	-399.9313049316407	315.4934692382813	-1184.197143554688	-355.6273803710938	309.2112731933594	-1175.206298828125	-349.3315124511719	225.6227264404297	-1162.7109375	-415.1090393066407	90.52015686035158	-1215.761596679688	-357.9654541015626	100.3949127197266	-1137.335571289063	-463.8040771484376	52.93924713134767	-1147.770385742188	-246.1014251708985	56.52951431274415	-1194.3935546875	-253.7550048828126	57.46505355834962	-1242.953979492188	-315.4680480957032	34.85663986206055	-1280.551147460938	-347.8528747558594	732.8165893554689	-679.9481201171876	-319.5924377441407	673.1047363281251	-670.2545776367189	-286.8127441406251	669.5358276367189	-670.6425170898439	-357.6049804687501	599.8557739257814	-686.8475952148439	-383.1766967773438	508.1687011718751	-684.6954956054689	-305.5647277832032	488.1805419921876	-798.8491210937502	-334.8631896972657	402.6564941406251	-659.6963500976564	-413.4653625488282	335.1302185058594	-634.3734130859376	-367.7674865722657	326.9235839843751	-630.1991577148439	-348.3952941894532	273.4853210449219	-641.7215576171876	-413.3967895507814	93.65315246582033	-608.7255249023439	-348.3729858398438	103.5279235839844	-678.7012939453126	-449.6024169921876	51.37984848022462	-682.4339599609376	-234.7033996582032	54.24106216430665	-611.5535278320314	-250.8665924072266	54.64366531372072	-565.8541259765626	-313.1948852539063	32.94316864013673	-536.8751831054689	
2	0.005	-177.4636383056641	1754.377807617188	-909.0078125000002	-329.1359558105469	1672.442138671875	-974.4644165039065	-341.7947082519532	1668.790161132813	-835.0764770507815	-362.4556884765626	1523.721435546875	-896.8758544921877	-409.6776733398439	1186.70166015625	-895.8183593750002	-224.335433959961	1454.360961914063	-901.0227661132815	-286.6419067382813	1512.151245117188	-1060.1904296875	-388.8144531250001	1385.600219726563	-1226.451293945313	-350.1838073730469	1351.362548828125	-1236.826171875	-396.9467773437501	1331.913330078125	-1270.4482421875	-389.456756591797	1268.180786132813	-1293.382690429688	-460.1420288085939	1247.3212890625	-1242.2880859375	-335.7931213378907	1065.796875	-1133.138061523438	-295.2349853515626	1029.262573242188	-1186.208740234375	-280.8905334472657	1078.650390625	-1099.87158203125	-273.4941406250001	1515.111450195313	-737.7833251953126	-377.3980102539063	1376.25390625	-568.0672607421876	-351.0047607421876	1335.487548828125	-562.7233886718751	-402.0441894531251	1320.140014648438	-533.3837890625001	-410.8306884765626	1271.349243164063	-517.7144165039064	-472.3829956054689	1260.610717773438	-578.0247802734376	-362.3255310058594	1056.76123046875	-680.9454345703126	-296.8764953613282	1076.276977539063	-699.9915771484376	-317.7073059082032	1032.113403320313	-617.9677124023439	-215.9634552001954	1012.326843261719	-1024.228515625	-211.7876739501954	1018.761352539063	-764.4843750000001	-406.0863342285157	1094.404052734375	-892.8385009765627	-409.7064819335939	1061.677856445313	-920.235290527344	-407.4295959472657	1061.404174804688	-864.3535766601565	-353.1217651367188	802.5330810546877	-1122.2412109375	-332.0662536621094	721.3822631835939	-1136.677734375	-285.1342773437501	720.3789672851564	-1139.992065429688	-365.1911315917969	670.6433105468751	-1122.476806640625	-381.0406188964844	513.9724731445314	-1124.89990234375	-312.2576904296876	479.9486694335939	-1012.2998046875	-332.3584899902344	349.4826660156251	-1136.947387695313	-399.8859863281251	315.5749206542969	-1184.077880859375	-355.6054687500001	309.3417358398438	-1175.152465820313	-348.9659118652344	225.9722442626954	-1162.841430664063	-415.0161437988282	90.61220550537111	-1215.73681640625	-357.7158813476563	100.5426559448242	-1137.443115234375	-463.7437438964845	53.03118133544923	-1147.718017578125	-246.0708923339844	56.5067825317383	-1194.466186523438	-253.7883605957032	57.41341400146486	-1243.014892578125	-315.4736633300782	34.79022598266602	-1280.573608398438	-347.2843322753907	733.1827392578126	-679.5072631835939	-319.0091857910157	673.4703979492189	-669.6915893554689	-286.2324218750001	669.8406982421876	-670.2567138671876	-357.0953674316407	600.2659301757814	-686.1365966796876	-382.7559204101563	508.489715576172	-684.0312500000001	-307.3231201171876	488.2840270996095	-797.6109619140627	-334.5223693847657	402.8903808593751	-659.0965576171876	-413.3155212402345	335.6230468750001	-633.7057495117189	-367.5580139160157	327.2867431640626	-629.3865356445314	-348.1581726074219	273.8171997070313	-641.1290283203126	-413.5479736328126	93.85239410400392	-607.9958496093751	-348.6210937500001	103.8814849853516	-678.0322265625001	-449.9867553710939	51.79632949829103	-681.5758056640626	-234.7877807617188	54.26829528808595	-611.5003051757814	-250.9849853515626	54.51948547363283	-565.6326293945314	-313.1398010253907	32.75289916992188	-536.6479492187501	
3	0.01	-177.2945556640625	1754.29541015625	-908.9253540039065	-328.9900512695313	1672.527221679688	-974.425720214844	-341.6562805175782	1668.926391601563	-835.1127929687502	-362.3906860351563	1523.802734375	-896.9020996093752	-409.6293029785157	1186.784912109375	-895.5176391601565	-224.2224578857422	1454.497802734375	-900.9046630859377	-286.3474731445313	1512.156860351563	-1060.184326171875	-388.3978271484376	1385.497802734375	-1226.508422851563	-349.8067321777344	1351.25439453125	-1236.799072265625	-396.2066345214845	1331.578735351563	-1270.515869140625	-389.1564025878907	1268.066528320313	-1293.30224609375	-459.8751220703126	1247.235229492188	-1242.304809570313	-335.6696166992188	1065.775756835938	-1132.928833007813	-295.1159362792969	1029.133666992188	-1185.949829101563	-280.5018005371094	1078.491088867188	-1099.710571289063	-273.6514892578126	1515.351806640625	-737.7905883789064	-377.5121765136719	1376.557373046875	-568.0248413085939	-351.2864379882813	1335.929931640625	-562.4845581054689	-402.0904541015626	1320.640502929688	-533.2498779296876	-410.8995666503907	1271.669921875	-517.5443115234376	-472.4029235839845	1260.922241210938	-577.8432006835939	-361.8950805664063	1057.13232421875	-680.7376098632814	-296.4311523437501	1076.815307617188	-699.7265625000001	-317.5588073730469	1032.68701171875	-617.6078491210939	-215.8086395263672	1012.850036621094	-1023.953857421875	-211.5538482666016	1019.239501953125	-764.2000122070314	-405.9389038085939	1094.479370117188	-892.5441894531252	-409.5189514160157	1061.63916015625	-919.840759277344	-407.1250610351564	1061.448608398438	-864.035339355469	-353.4712524414063	802.7968750000002	-1121.788330078125	-332.1388549804688	721.5435791015626	-1136.309204101563	-285.1892700195313	720.5674438476564	-1139.807373046875	-365.1257629394532	670.7734375000001	-1122.10888671875	-380.8943176269532	514.1078491210939	-1124.706176757813	-311.9417114257813	479.9489746093751	-1012.208374023438	-332.1917114257813	349.5674133300782	-1136.9443359375	-399.7051391601564	315.6958007812501	-1183.891479492188	-355.4748535156251	309.4715576171876	-1175.130004882813	-348.7324829101563	226.166976928711	-1162.933837890625	-414.9899902343751	90.66931152343751	-1215.706420898438	-357.5718383789063	100.6699981689453	-1137.544799804688	-463.7615966796876	53.11989212036134	-1147.671752929688	-245.9909820556641	56.58567428588869	-1194.591552734375	-253.6956481933594	57.37266540527345	-1243.151611328125	-315.5537719726563	34.73280715942384	-1280.639892578125	-346.5377502441407	733.5234375000001	-678.8405761718751	-318.5422668457032	673.7391357421876	-669.1475219726564	-285.5724792480469	670.2946777343751	-669.9203491210939	-356.7945251464844	600.7338867187501	-685.4130859375001	-382.3180236816407	508.8468627929689	-683.3060913085939	-305.4752807617188	488.742401123047	-797.579528808594	-334.2765197753907	403.2037963867189	-658.4288330078126	-412.9205017089845	335.9899902343751	-632.2522583007814	-367.2907714843751	327.5493774414063	-628.6037597656251	-348.0052795410157	274.1773681640626	-640.4907836914064	-413.6550903320314	94.05625915527345	-607.0297241210939	-348.9448242187501	104.2100219726563	-677.3937377929689	-450.5380249023439	52.25423049926759	-680.6324462890626	-234.8763275146485	54.29077148437501	-611.3812866210939	-251.0452270507813	54.43051910400392	-565.4411621093751	-313.0924072265626	32.57886505126954	-536.4300537109376	
4	0.015	-177.083724975586	1754.165161132813	-908.885192871094	-328.7792358398438	1672.641479492188	-974.4411621093752	-341.5849914550782	1669.07861328125	-835.0797119140627	-362.3488464355469	1523.839233398438	-896.9765625000002	-409.5901489257814	1186.780883789063	-895.2934570312502	-224.1684875488282	1454.633911132813	-900.8173828125002	-286.0788269042969	1512.165771484375	-1060.137573242188	-388.0591735839845	1385.412231445313	-1226.541748046875	-349.6141662597657	1351.215087890625	-1236.727905273438	-395.7278137207032	1331.450561523438	-1270.485473632813	-388.765594482422	1267.903930664063	-1293.197265625	-459.9433898925782	1247.258178710938	-1242.1181640625	-335.7181396484376	1065.74755859375	-1132.650024414063	-295.0228576660157	1029.061889648438	-1185.608520507813	-280.8318481445313	1078.628784179688	-1099.440185546875	-273.7373657226563	1515.509643554688	-737.7521972656251	-377.6815185546876	1377.005249023438	-567.9752197265626	-351.3384399414063	1336.276245117188	-562.3321533203126	-402.1509399414064	1321.00439453125	-533.1328125000001	-410.7881469726564	1272.020263671875	-517.0458984375001	-472.4299926757814	1261.250732421875	-577.7323608398439	-361.6459045410157	1057.609497070313	-680.3816528320314	-296.0646667480469	1077.240844726563	-699.4450073242189	-317.3053588867188	1033.143676757813	-617.3613891601564	-215.6645202636719	1013.125915527344	-1023.724548339844	-211.0735778808594	1019.797668457031	-763.9442138671876	-405.735321044922	1094.4990234375	-892.3319091796877	-409.3153686523439	1061.650268554688	-919.5484619140627	-406.921112060547	1061.490600585938	-863.7829589843752	-353.1060485839844	802.851989746094	-1121.330688476563	-332.0555114746094	721.6799926757814	-1136.07275390625	-285.1401062011719	720.7238159179689	-1139.615844726563	-364.9794921875001	670.9291992187501	-1121.733276367188	-380.7706604003907	514.2393798828126	-1124.512573242188	-311.3740539550782	479.9666748046876	-1012.200134277344	-332.1074523925782	349.6304016113282	-1136.880249023438	-399.5637512207032	315.8390197753907	-1183.662231445313	-355.4089660644532	309.6123046875001	-1175.062255859375	-348.6450805664063	226.3912353515626	-1162.9677734375	-414.9201049804689	90.81758880615236	-1215.719604492188	-357.3554992675782	100.8299407958985	-1137.688354492188	-463.6484985351564	53.26399230957033	-1147.750244140625	-245.9809265136719	56.57820510864259	-1194.66455078125	-253.718490600586	57.30491256713869	-1243.26318359375	-315.5632934570313	34.70343017578126	-1280.635131835938	-345.9336547851563	733.8498535156251	-678.1275634765626	-318.0056152343751	674.0497436523439	-668.5591430664064	-284.9158020019532	670.5388183593751	-669.3760375976564	-356.3473815917969	601.1197509765626	-684.7792358398439	-382.0499877929688	509.295135498047	-682.5551757812501	-305.3892211914063	488.9718322753907	-796.9810791015627	-334.0266113281251	403.4990844726564	-657.7310791015626	-412.7188110351564	336.4267578125001	-631.5607910156251	-366.9737854003907	327.8493347167969	-627.9453125000001	-347.9344177246094	274.4229431152344	-639.8355712890626	-413.7530822753907	94.33831787109376	-606.2935180664064	-349.2701110839844	104.5737228393555	-676.7655639648439	-450.8653259277345	52.67706298828126	-679.7645874023439	-235.0947570800782	54.32619857788087	-611.1506347656251	-251.0417785644532	54.3991165161133	-565.2660522460939	-313.0701293945313	32.37796783447266	-536.1871948242189	
